<?xml version="1.0" standalone="no"?>
<!DOCTYPE svg PUBLIC "-//W3C//DTD SVG 20010904//EN"
 "http://www.w3.org/TR/2001/REC-SVG-20010904/DTD/svg10.dtd">
<svg version="1.0" xmlns="http://www.w3.org/2000/svg"
 width="700.000000pt" height="700.000000pt" viewBox="0 0 700.000000 700.000000"
 preserveAspectRatio="xMidYMid meet">
<metadata>
Created by potrace 1.14, written by Peter Selinger 2001-2017
</metadata>
<g transform="translate(0.000000,700.000000) scale(0.100000,-0.100000)"
fill="#000000" stroke="none">
<path d="M3339 6486 c-2 -2 -40 -7 -84 -10 -106 -8 -154 -14 -255 -33 -47 -8
-96 -17 -110 -19 -53 -9 -309 -85 -385 -114 -371 -142 -696 -353 -980 -635
-186 -186 -310 -343 -442 -565 -68 -113 -183 -349 -183 -373 0 -7 -4 -17 -9
-22 -21 -23 -112 -322 -135 -446 -9 -46 -18 -93 -20 -105 -2 -12 -7 -45 -11
-75 -3 -30 -8 -65 -10 -79 -35 -236 -24 -514 34 -860 23 -134 96 -375 167
-545 96 -232 282 -535 440 -715 137 -157 254 -272 369 -363 33 -27 67 -54 75
-60 208 -167 586 -362 856 -442 96 -29 225 -61 277 -70 17 -4 50 -10 72 -15
146 -31 597 -47 765 -27 36 4 88 10 115 13 104 12 451 94 520 123 11 5 47 19
80 32 374 141 714 365 1001 661 215 222 351 409 489 672 141 270 248 609 280
890 6 53 14 113 22 161 12 79 5 438 -12 550 -8 61 -17 124 -20 140 -32 232
-129 533 -246 767 -233 467 -578 850 -1030 1144 -176 114 -494 258 -674 305
-16 4 -57 15 -90 24 -33 9 -69 18 -80 21 -11 2 -31 6 -45 9 -76 16 -174 32
-250 40 -30 4 -71 9 -90 11 -46 7 -395 15 -401 10z"/>
</g>
</svg>
