
<?xml version="1.0" encoding="utf-8"?>
<svg viewBox="0 0 500 500" xmlns="http://www.w3.org/2000/svg">
  <g transform="matrix(1, 0, 0, 1, -200.49252319335935, -13.831096649169922)">
    <path id="path0" d="M 441.136 120.144 C 441.03 120.251 438.65 120.5 435.848 120.699 C 430.559 121.075 420.76 122.216 417.691 122.815 C 416.72 123.004 413.463 123.634 410.454 124.215 C 405.616 125.149 400.086 126.459 393.331 128.271 C 390.692 128.979 383.315 131.391 379.562 132.774 C 368.713 136.77 356.943 142.29 346.023 148.504 C 342.681 150.405 331.669 157.573 328.9 159.649 C 310.213 173.66 301.363 182.594 301.363 187.446 C 301.363 187.818 301.175 188.822 300.946 189.679 C 299.638 194.571 303.428 202.988 308.575 206.618 C 316.861 212.461 325.269 211.254 334.565 202.887 C 346.193 192.42 356.169 185.207 368.265 178.518 C 372.038 176.432 381.927 171.539 382.371 171.539 C 382.465 171.539 383.381 171.155 384.406 170.686 C 385.431 170.217 387.382 169.411 388.741 168.895 C 451.357 145.111 519.434 157.876 568.618 202.622 C 572.67 206.309 575.556 208.277 578.15 209.121 C 594.7 214.508 608.695 197.053 599.8 182.119 C 593.656 171.805 557.812 146.697 536.844 138.018 C 535.776 137.576 534.266 136.93 533.49 136.582 C 515.683 128.62 491.781 122.806 468 120.651 C 463.327 120.227 441.465 119.815 441.136 120.144 M 442.228 182.115 C 435.538 182.544 431.258 183.098 423.163 184.582 C 415.128 186.055 404.549 189.229 395.096 193.001 C 375.641 200.766 347.896 220.839 343.627 230.239 C 337.479 243.776 349.085 258.726 363.647 256.028 C 367.762 255.265 370.649 253.52 376.674 248.156 C 383.614 241.976 398.276 231.556 400.031 231.556 C 400.119 231.556 401.587 230.872 403.292 230.036 C 414.06 224.76 425.334 221.391 437.991 219.668 C 444.162 218.828 459.376 218.83 465.529 219.671 C 477.954 221.369 488.616 224.533 499.597 229.78 C 509.166 234.352 518.363 240.566 526.689 248.088 C 531.718 252.63 534.061 254.292 536.844 255.288 C 553.492 261.248 568.256 242.48 558.435 227.84 C 554.143 221.444 539.342 209.766 523.781 200.5 C 520.731 198.684 509.582 193.431 506.211 192.222 C 504.904 191.754 502.245 190.786 500.303 190.071 C 496.097 188.523 489.926 186.699 485.299 185.635 C 472.052 182.589 455.686 181.251 442.228 182.115 M 445.405 243.802 C 423.345 245.451 399.006 257.517 387.251 272.632 C 377.672 284.95 385.706 302.265 401.133 302.552 C 407.149 302.664 410.71 300.985 416.971 295.088 C 437.196 276.035 466.087 275.716 485.727 294.329 C 494.812 302.938 501.543 304.802 509.827 301.001 C 521.94 295.442 524.018 280.748 514.18 270.214 C 497.383 252.228 470.547 241.922 445.405 243.802 M 446.931 309.221 C 417.598 313.382 403.258 344.754 420.332 367.413 C 439.049 392.252 480.554 386.128 490.48 357.064 C 499.267 331.333 475.456 305.175 446.931 309.221" stroke="none" fill-rule="evenodd" style="fill: rgb(91, 174, 244);"/>
    <path id="path1" d="M 441.081 50.5 C 441.032 50.632 439.244 50.832 437.108 50.945 C 432.66 51.179 432.299 51.213 423.706 52.216 C 420.204 52.624 416.623 53.126 415.749 53.33 C 414.875 53.535 411.857 54.141 409.041 54.678 C 406.226 55.214 403.012 55.908 401.899 56.22 C 400.786 56.532 399.435 56.868 398.898 56.968 C 397.197 57.284 388.3 59.875 387.506 60.285 C 387.214 60.436 385.546 61.005 383.799 61.551 C 382.051 62.097 380.448 62.679 380.236 62.845 C 380.024 63.011 378.912 63.452 377.765 63.824 C 376.617 64.197 374.725 64.925 373.56 65.444 C 372.395 65.962 370.33 66.87 368.971 67.462 C 325.387 86.446 288.306 123.048 268.336 166.798 C 266.889 169.968 265.705 172.651 265.705 172.76 C 265.705 172.869 265.4 173.632 265.027 174.455 C 262.455 180.138 257.89 194.036 256.361 200.841 C 256.033 202.298 255.623 203.807 255.449 204.195 C 255.274 204.584 254.723 207.284 254.223 210.197 C 253.723 213.11 253.169 215.969 252.992 216.552 C 252.815 217.134 252.329 220.55 251.913 224.142 C 250.976 232.238 250.974 232.256 250.699 237.199 C 250.576 239.429 250.366 241.336 250.233 241.436 C 249.914 241.677 249.923 258.157 250.242 258.398 C 250.378 258.501 250.557 260.248 250.638 262.281 C 250.997 271.226 253.72 289.937 255.595 296.34 C 255.879 297.311 256.454 299.535 256.873 301.283 C 257.737 304.883 257.76 304.971 258.026 305.696 C 258.134 305.987 259.1 308.926 260.174 312.227 C 262.407 319.091 264.012 323.569 265.012 325.727 C 265.393 326.55 265.705 327.285 265.705 327.361 C 265.705 327.436 265.945 328.073 266.239 328.775 C 266.532 329.478 266.765 330.093 266.756 330.142 C 266.698 330.471 274.592 345.879 276.66 349.473 C 287.147 367.7 302.278 386.25 317.563 399.619 C 318.997 400.874 320.43 402.139 320.747 402.43 C 324.74 406.1 340.733 417.705 345.14 420.131 C 345.82 420.505 347.17 421.303 348.141 421.904 C 352.231 424.438 360.121 428.601 365.087 430.846 C 366.252 431.373 368 432.174 368.971 432.628 C 371.597 433.854 377.245 436.166 378.856 436.675 C 379.633 436.92 380.427 437.244 380.621 437.395 C 380.815 437.546 382.325 438.092 383.975 438.609 C 385.626 439.125 387.294 439.691 387.682 439.866 C 388.332 440.158 391.154 440.996 397.038 442.641 C 398.3 442.995 400.286 443.495 401.451 443.754 C 403.898 444.297 403.763 444.261 404.452 444.545 C 404.883 444.723 410.877 445.89 413.807 446.366 C 414.196 446.429 415.228 446.647 416.102 446.851 C 417.74 447.232 429.124 448.576 432.862 448.829 C 434.021 448.907 435.028 449.144 435.098 449.355 C 435.248 449.805 436.993 449.87 437.479 449.444 C 437.664 449.283 439.244 449.269 440.992 449.414 C 445.077 449.752 454.559 449.752 458.644 449.414 C 460.392 449.269 461.973 449.283 462.157 449.444 C 462.644 449.87 464.388 449.805 464.538 449.355 C 464.609 449.144 465.602 448.907 466.747 448.827 C 470.511 448.566 481.557 447.266 483.357 446.872 C 484.328 446.66 487.426 446.042 490.242 445.5 C 493.057 444.958 496.394 444.247 497.656 443.922 C 498.918 443.596 500.189 443.278 500.48 443.215 C 502.285 442.827 510.966 440.281 511.954 439.85 C 512.342 439.68 513.931 439.134 515.484 438.635 C 517.038 438.137 518.627 437.582 519.015 437.404 C 519.403 437.225 520.595 436.758 521.663 436.365 C 524.507 435.32 528.646 433.61 530.665 432.645 C 532.131 431.945 535.685 430.298 539.157 428.71 C 540.745 427.984 551.7 421.882 552.705 421.163 C 553.011 420.945 554.055 420.29 555.025 419.708 C 574.484 408.035 594.22 389.929 609.838 369.42 C 612.933 365.357 617.672 358.298 620.506 353.533 C 621.545 351.786 622.797 349.72 623.288 348.944 C 624.484 347.05 630.526 335.178 631.594 332.622 C 632.062 331.502 633.235 328.758 634.202 326.525 C 635.168 324.292 636.157 321.83 636.399 321.053 C 636.641 320.276 637.05 319.164 637.308 318.582 C 638.425 316.061 642.509 302.701 643.298 298.988 C 643.608 297.531 644.011 295.943 644.195 295.457 C 645.198 292.805 647.657 277.161 648.363 268.939 C 648.555 266.705 648.875 264.88 649.086 264.81 C 649.543 264.657 649.589 263.252 649.152 262.783 C 648.973 262.591 648.965 260.943 649.135 258.917 C 649.495 254.616 649.498 245.234 649.141 240.912 C 648.996 239.164 649.01 237.584 649.171 237.399 C 649.591 236.92 649.535 235.169 649.096 235.022 C 648.891 234.954 648.49 232.389 648.194 229.256 C 647.448 221.365 645.086 206.754 644.171 204.372 C 643.985 203.886 643.442 201.9 642.965 199.959 C 641.76 195.057 639.989 188.801 639.567 187.955 C 639.374 187.567 638.833 186.058 638.366 184.601 C 637.59 182.178 636.306 178.729 634.295 173.657 C 628.867 159.973 617.924 141.1 607.922 128.172 C 588.391 102.928 555.98 77.308 531.901 68.08 C 531.221 67.82 530.586 67.51 530.489 67.392 C 530.392 67.274 529.518 66.883 528.547 66.524 C 527.576 66.164 525.988 65.518 525.017 65.088 C 524.046 64.658 522.457 64.028 521.486 63.687 C 520.515 63.346 519.07 62.779 518.275 62.428 C 517.48 62.077 515.811 61.526 514.568 61.204 C 513.324 60.882 512.148 60.495 511.954 60.343 C 511.299 59.83 501.521 57.061 497.479 56.245 C 497.091 56.166 496.376 55.953 495.89 55.771 C 495.405 55.588 493.101 55.102 490.771 54.69 C 488.441 54.278 485.582 53.717 484.416 53.444 C 482.662 53.032 476.264 52.198 467.987 51.302 C 467.12 51.209 464.544 51.04 462.263 50.927 C 459.981 50.815 458.115 50.62 458.115 50.495 C 458.115 50.19 441.195 50.195 441.081 50.5 M 468 120.651 C 483.917 122.093 497.051 124.505 510.895 128.528 C 516.902 130.274 529.126 134.631 533.49 136.582 C 534.266 136.93 535.776 137.576 536.844 138.018 C 557.812 146.697 593.656 171.805 599.8 182.119 C 608.695 197.053 594.7 214.508 578.15 209.121 C 575.556 208.277 572.67 206.309 568.618 202.622 C 538.072 174.833 501.475 159.592 459.968 157.375 C 435.053 156.045 404.745 161.384 384.406 170.686 C 383.381 171.155 382.465 171.539 382.371 171.539 C 381.927 171.539 372.038 176.432 368.265 178.518 C 356.169 185.207 346.193 192.42 334.565 202.887 C 325.269 211.254 316.861 212.461 308.575 206.618 C 303.428 202.988 299.638 194.571 300.946 189.679 C 301.175 188.822 301.363 187.818 301.363 187.446 C 301.363 182.594 310.213 173.66 328.9 159.649 C 345.579 147.144 373.299 133.644 393.331 128.271 C 400.086 126.459 405.616 125.149 410.454 124.215 C 413.463 123.634 416.72 123.004 417.691 122.815 C 420.76 122.216 430.559 121.075 435.848 120.699 C 438.65 120.5 441.03 120.251 441.136 120.144 C 441.465 119.815 463.327 120.227 468 120.651 M 467.647 182.671 C 471.823 183.138 475.529 183.694 480.533 184.606 C 486.005 185.604 494.674 188 500.303 190.071 C 502.245 190.786 504.904 191.754 506.211 192.222 C 509.582 193.431 520.731 198.684 523.781 200.5 C 539.342 209.766 554.143 221.444 558.435 227.84 C 568.256 242.48 553.492 261.248 536.844 255.288 C 534.061 254.292 531.718 252.63 526.689 248.088 C 509.217 232.305 488.901 222.866 465.529 219.671 C 459.376 218.83 444.162 218.828 437.991 219.668 C 425.334 221.391 414.06 224.76 403.292 230.036 C 401.587 230.872 400.119 231.556 400.031 231.556 C 398.276 231.556 383.614 241.976 376.674 248.156 C 370.649 253.52 367.762 255.265 363.647 256.028 C 349.085 258.726 337.479 243.776 343.627 230.239 C 347.896 220.839 375.641 200.766 395.096 193.001 C 404.549 189.229 415.128 186.055 423.163 184.582 C 431.258 183.098 435.538 182.544 442.228 182.115 C 448.273 181.727 461.868 182.024 467.647 182.671 M 458.997 243.924 C 480.162 245.906 500.549 255.618 514.18 270.214 C 524.018 280.748 521.94 295.442 509.827 301.001 C 501.543 304.802 494.812 302.938 485.727 294.329 C 466.087 275.716 437.196 276.035 416.971 295.088 C 410.71 300.985 407.149 302.664 401.133 302.552 C 385.706 302.265 377.672 284.95 387.251 272.632 C 401.89 253.809 432.739 241.465 458.997 243.924 M 462.704 310.132 C 495.467 318.463 502.988 358.009 475.293 376.32 C 451.539 392.026 418.186 378.713 413.443 351.634 C 408.882 325.592 435.457 303.204 462.704 310.132" stroke="none" fill-rule="evenodd" style="fill: rgb(255, 255, 255);"/>
  </g>
</svg>