<svg id="svg" version="1.1" xmlns="http://www.w3.org/2000/svg" xmlns:xlink="http://www.w3.org/1999/xlink" width="400" height="400" viewBox="0, 0, 400,400"><g id="svgg"><path id="path0" d="M191.671 70.406 C 191.565 70.513,189.185 70.762,186.383 70.961 C 181.094 71.337,171.295 72.478,168.226 73.077 C 167.255 73.266,163.998 73.896,160.989 74.477 C 156.151 75.411,150.621 76.721,143.866 78.533 C 141.227 79.241,133.850 81.653,130.097 83.036 C 119.248 87.032,107.478 92.552,96.558 98.766 C 93.216 100.667,82.204 107.835,79.435 109.911 C 60.748 123.922,51.898 132.856,51.898 137.708 C 51.898 138.080,51.710 139.084,51.481 139.941 C 50.173 144.833,53.963 153.250,59.110 156.880 C 67.396 162.723,75.804 161.516,85.100 153.149 C 96.728 142.682,106.704 135.469,118.800 128.780 C 122.573 126.694,132.462 121.801,132.906 121.801 C 133.000 121.801,133.916 121.417,134.941 120.948 C 135.966 120.479,137.917 119.673,139.276 119.157 C 201.892 95.373,269.969 108.138,319.153 152.884 C 323.205 156.571,326.091 158.539,328.685 159.383 C 345.235 164.770,359.230 147.315,350.335 132.381 C 344.191 122.067,308.347 96.959,287.379 88.280 C 286.311 87.838,284.801 87.192,284.025 86.844 C 266.218 78.882,242.316 73.068,218.535 70.913 C 213.862 70.489,192.000 70.077,191.671 70.406 M192.763 132.377 C 186.073 132.806,181.793 133.360,173.698 134.844 C 165.663 136.317,155.084 139.491,145.631 143.263 C 126.176 151.028,98.431 171.101,94.162 180.501 C 88.014 194.038,99.620 208.988,114.182 206.290 C 118.297 205.527,121.184 203.782,127.209 198.418 C 134.149 192.238,148.811 181.818,150.566 181.818 C 150.654 181.818,152.122 181.134,153.827 180.298 C 164.595 175.022,175.869 171.653,188.526 169.930 C 194.697 169.090,209.911 169.092,216.064 169.933 C 228.489 171.631,239.151 174.795,250.132 180.042 C 259.701 184.614,268.898 190.828,277.224 198.350 C 282.253 202.892,284.596 204.554,287.379 205.550 C 304.027 211.510,318.791 192.742,308.970 178.102 C 304.678 171.706,289.877 160.028,274.316 150.762 C 271.266 148.946,260.117 143.693,256.746 142.484 C 255.439 142.016,252.780 141.048,250.838 140.333 C 246.632 138.785,240.461 136.961,235.834 135.897 C 222.587 132.851,206.221 131.513,192.763 132.377 M195.940 194.064 C 173.880 195.713,149.541 207.779,137.786 222.894 C 128.207 235.212,136.241 252.527,151.668 252.814 C 157.684 252.926,161.245 251.247,167.506 245.350 C 187.731 226.297,216.622 225.978,236.262 244.591 C 245.347 253.200,252.078 255.064,260.362 251.263 C 272.475 245.704,274.553 231.010,264.715 220.476 C 247.918 202.490,221.082 192.184,195.940 194.064 M197.466 259.483 C 168.133 263.644,153.793 295.016,170.867 317.675 C 189.584 342.514,231.089 336.390,241.015 307.326 C 249.802 281.595,225.991 255.437,197.466 259.483 " stroke="none" fill="#ff0404" fill-rule="evenodd"></path><path id="path1" d="M191.616 0.762 C 191.567 0.894,189.779 1.094,187.643 1.207 C 183.195 1.441,182.834 1.475,174.241 2.478 C 170.739 2.886,167.158 3.388,166.284 3.592 C 165.410 3.797,162.392 4.403,159.576 4.940 C 156.761 5.476,153.547 6.170,152.434 6.482 C 151.321 6.794,149.970 7.130,149.433 7.230 C 147.732 7.546,138.835 10.137,138.041 10.547 C 137.749 10.698,136.081 11.267,134.334 11.813 C 132.586 12.359,130.983 12.941,130.771 13.107 C 130.559 13.273,129.447 13.714,128.300 14.086 C 127.152 14.459,125.260 15.187,124.095 15.706 C 122.930 16.224,120.865 17.132,119.506 17.724 C 75.922 36.708,38.841 73.310,18.871 117.060 C 17.424 120.230,16.240 122.913,16.240 123.022 C 16.240 123.131,15.935 123.894,15.562 124.717 C 12.990 130.400,8.425 144.298,6.896 151.103 C 6.568 152.560,6.158 154.069,5.984 154.457 C 5.809 154.846,5.258 157.546,4.758 160.459 C 4.258 163.372,3.704 166.231,3.527 166.814 C 3.350 167.396,2.864 170.812,2.448 174.404 C 1.511 182.500,1.509 182.518,1.234 187.461 C 1.111 189.691,0.901 191.598,0.768 191.698 C 0.449 191.939,0.458 208.419,0.777 208.660 C 0.913 208.763,1.092 210.510,1.173 212.543 C 1.532 221.488,4.255 240.199,6.130 246.602 C 6.414 247.573,6.989 249.797,7.408 251.545 C 8.272 255.145,8.295 255.233,8.561 255.958 C 8.669 256.249,9.635 259.188,10.709 262.489 C 12.942 269.353,14.547 273.831,15.547 275.989 C 15.928 276.812,16.240 277.547,16.240 277.623 C 16.240 277.698,16.480 278.335,16.774 279.037 C 17.067 279.740,17.300 280.355,17.291 280.404 C 17.233 280.733,25.127 296.141,27.195 299.735 C 37.682 317.962,52.813 336.512,68.098 349.881 C 69.532 351.136,70.965 352.401,71.282 352.692 C 75.275 356.362,91.268 367.967,95.675 370.393 C 96.355 370.767,97.705 371.565,98.676 372.166 C 102.766 374.700,110.656 378.863,115.622 381.108 C 116.787 381.635,118.535 382.436,119.506 382.890 C 122.132 384.116,127.780 386.428,129.391 386.937 C 130.168 387.182,130.962 387.506,131.156 387.657 C 131.350 387.808,132.860 388.354,134.510 388.871 C 136.161 389.387,137.829 389.953,138.217 390.128 C 138.867 390.420,141.689 391.258,147.573 392.903 C 148.835 393.257,150.821 393.757,151.986 394.016 C 154.433 394.559,154.298 394.523,154.987 394.807 C 155.418 394.985,161.412 396.152,164.342 396.628 C 164.731 396.691,165.763 396.909,166.637 397.113 C 168.275 397.494,179.659 398.838,183.397 399.091 C 184.556 399.169,185.563 399.406,185.633 399.617 C 185.783 400.067,187.528 400.132,188.014 399.706 C 188.199 399.545,189.779 399.531,191.527 399.676 C 195.612 400.014,205.094 400.014,209.179 399.676 C 210.927 399.531,212.508 399.545,212.692 399.706 C 213.179 400.132,214.923 400.067,215.073 399.617 C 215.144 399.406,216.137 399.169,217.282 399.089 C 221.046 398.828,232.092 397.528,233.892 397.134 C 234.863 396.922,237.961 396.304,240.777 395.762 C 243.592 395.220,246.929 394.509,248.191 394.184 C 249.453 393.858,250.724 393.540,251.015 393.477 C 252.820 393.089,261.501 390.543,262.489 390.112 C 262.877 389.942,264.466 389.396,266.019 388.897 C 267.573 388.399,269.162 387.844,269.550 387.666 C 269.938 387.487,271.130 387.020,272.198 386.627 C 275.042 385.582,279.181 383.872,281.200 382.907 C 282.666 382.207,286.220 380.560,289.692 378.972 C 291.280 378.246,302.235 372.144,303.240 371.425 C 303.546 371.207,304.590 370.552,305.560 369.970 C 325.019 358.297,344.755 340.191,360.373 319.682 C 363.468 315.619,368.207 308.560,371.041 303.795 C 372.080 302.048,373.332 299.982,373.823 299.206 C 375.019 297.312,381.061 285.440,382.129 282.884 C 382.597 281.764,383.770 279.020,384.737 276.787 C 385.703 274.554,386.692 272.092,386.934 271.315 C 387.176 270.538,387.585 269.426,387.843 268.844 C 388.960 266.323,393.044 252.963,393.833 249.250 C 394.143 247.793,394.546 246.205,394.730 245.719 C 395.733 243.067,398.192 227.423,398.898 219.201 C 399.090 216.967,399.410 215.142,399.621 215.072 C 400.078 214.919,400.124 213.514,399.687 213.045 C 399.508 212.853,399.500 211.205,399.670 209.179 C 400.030 204.878,400.033 195.496,399.676 191.174 C 399.531 189.426,399.545 187.846,399.706 187.661 C 400.126 187.182,400.070 185.431,399.631 185.284 C 399.426 185.216,399.025 182.651,398.729 179.518 C 397.983 171.627,395.621 157.016,394.706 154.634 C 394.520 154.148,393.977 152.162,393.500 150.221 C 392.295 145.319,390.524 139.063,390.102 138.217 C 389.909 137.829,389.368 136.320,388.901 134.863 C 388.125 132.440,386.841 128.991,384.830 123.919 C 379.402 110.235,368.459 91.362,358.457 78.434 C 338.926 53.190,306.515 27.570,282.436 18.342 C 281.756 18.082,281.121 17.772,281.024 17.654 C 280.927 17.536,280.053 17.145,279.082 16.786 C 278.111 16.426,276.523 15.780,275.552 15.350 C 274.581 14.920,272.992 14.290,272.021 13.949 C 271.050 13.608,269.605 13.041,268.810 12.690 C 268.015 12.339,266.346 11.788,265.103 11.466 C 263.859 11.144,262.683 10.757,262.489 10.605 C 261.834 10.092,252.056 7.323,248.014 6.507 C 247.626 6.428,246.911 6.215,246.425 6.033 C 245.940 5.850,243.636 5.364,241.306 4.952 C 238.976 4.540,236.117 3.979,234.951 3.706 C 233.197 3.294,226.799 2.460,218.522 1.564 C 217.655 1.471,215.079 1.302,212.798 1.189 C 210.516 1.077,208.650 0.882,208.650 0.757 C 208.650 0.452,191.730 0.457,191.616 0.762 M218.535 70.913 C 234.452 72.355,247.586 74.767,261.430 78.790 C 267.437 80.536,279.661 84.893,284.025 86.844 C 284.801 87.192,286.311 87.838,287.379 88.280 C 308.347 96.959,344.191 122.067,350.335 132.381 C 359.230 147.315,345.235 164.770,328.685 159.383 C 326.091 158.539,323.205 156.571,319.153 152.884 C 288.607 125.095,252.010 109.854,210.503 107.637 C 185.588 106.307,155.280 111.646,134.941 120.948 C 133.916 121.417,133.000 121.801,132.906 121.801 C 132.462 121.801,122.573 126.694,118.800 128.780 C 106.704 135.469,96.728 142.682,85.100 153.149 C 75.804 161.516,67.396 162.723,59.110 156.880 C 53.963 153.250,50.173 144.833,51.481 139.941 C 51.710 139.084,51.898 138.080,51.898 137.708 C 51.898 132.856,60.748 123.922,79.435 109.911 C 96.114 97.406,123.834 83.906,143.866 78.533 C 150.621 76.721,156.151 75.411,160.989 74.477 C 163.998 73.896,167.255 73.266,168.226 73.077 C 171.295 72.478,181.094 71.337,186.383 70.961 C 189.185 70.762,191.565 70.513,191.671 70.406 C 192.000 70.077,213.862 70.489,218.535 70.913 M218.182 132.933 C 222.358 133.400,226.064 133.956,231.068 134.868 C 236.540 135.866,245.209 138.262,250.838 140.333 C 252.780 141.048,255.439 142.016,256.746 142.484 C 260.117 143.693,271.266 148.946,274.316 150.762 C 289.877 160.028,304.678 171.706,308.970 178.102 C 318.791 192.742,304.027 211.510,287.379 205.550 C 284.596 204.554,282.253 202.892,277.224 198.350 C 259.752 182.567,239.436 173.128,216.064 169.933 C 209.911 169.092,194.697 169.090,188.526 169.930 C 175.869 171.653,164.595 175.022,153.827 180.298 C 152.122 181.134,150.654 181.818,150.566 181.818 C 148.811 181.818,134.149 192.238,127.209 198.418 C 121.184 203.782,118.297 205.527,114.182 206.290 C 99.620 208.988,88.014 194.038,94.162 180.501 C 98.431 171.101,126.176 151.028,145.631 143.263 C 155.084 139.491,165.663 136.317,173.698 134.844 C 181.793 133.360,186.073 132.806,192.763 132.377 C 198.808 131.989,212.403 132.286,218.182 132.933 M209.532 194.186 C 230.697 196.168,251.084 205.880,264.715 220.476 C 274.553 231.010,272.475 245.704,260.362 251.263 C 252.078 255.064,245.347 253.200,236.262 244.591 C 216.622 225.978,187.731 226.297,167.506 245.350 C 161.245 251.247,157.684 252.926,151.668 252.814 C 136.241 252.527,128.207 235.212,137.786 222.894 C 152.425 204.071,183.274 191.727,209.532 194.186 M213.239 260.394 C 246.002 268.725,253.523 308.271,225.828 326.582 C 202.074 342.288,168.721 328.975,163.978 301.896 C 159.417 275.854,185.992 253.466,213.239 260.394 " stroke="none" fill="#6c04bc" fill-rule="evenodd"></path></g></svg>